# xmcd
#
# Track frame offsets:
#	150
#	17065
#	34174
#	50475
#	68504
#	84352
#	102610
#	120378
#	136093
#	153004
#	168865
#	183188
#	201219
#
# Disc length: 2926 seconds
#
# Revision: 1
# Processed by: cddbd v1.5.2PL0 Copyright (c) Steve Scherf et al.
# Submitted via: EasyCDDAExtractor 10.0.3.1
#
DISCID=9a0b6c0d
DTITLE=원더걸스 - The Wonder Years
DYEAR=2007
DGENRE=Dance
TTITLE0=I Wanna
TTITLE1=이바보
TTITLE2=Tell Me (Sampling From "Two Of Hearts")
TTITLE3=Friend
TTITLE4=Headache
TTITLE5=뭐 어때 (Feat. David Kim)
TTITLE6=Wishing On A Star
TTITLE7=Move (Feat. 이민우)
TTITLE8=가져가
TTITLE9=Good Bye
TTITLE10=Bad Boy
TTITLE11=미안한 마음
TTITLE12=Irony
EXTD=
EXTT0=
EXTT1=
EXTT2=
EXTT3=
EXTT4=
EXTT5=
EXTT6=
EXTT7=
EXTT8=
EXTT9=
EXTT10=
EXTT11=
EXTT12=
PLAYORDER=
